<svg width="20" height="20" viewBox="0 0 20 20" fill="none" xmlns="http://www.w3.org/2000/svg">
<g id="Component 5">
<path id="Icon color" fill-rule="evenodd" clip-rule="evenodd" d="M13.3333 2.5H6.66667C4.36548 2.5 2.5 4.36548 2.5 6.66667V13.3333C2.5 15.6345 4.36548 17.5 6.66667 17.5H13.3333C15.6345 17.5 17.5 15.6345 17.5 13.3333V6.66667C17.5 4.36548 15.6345 2.5 13.3333 2.5ZM16.0421 13.333C16.0375 14.8268 14.8276 16.0367 13.3337 16.0413H6.66707C5.1732 16.0367 3.96332 14.8268 3.95874 13.333V6.66631C3.96332 5.17244 5.1732 3.96255 6.66707 3.95798H13.3337C14.8276 3.96255 16.0375 5.17244 16.0421 6.66631V13.333ZM13.9583 6.87467C14.4186 6.87467 14.7917 6.50158 14.7917 6.04134C14.7917 5.5811 14.4186 5.20801 13.9583 5.20801C13.4981 5.20801 13.125 5.5811 13.125 6.04134C13.125 6.50158 13.4981 6.87467 13.9583 6.87467ZM10 6.25C7.92893 6.25 6.25 7.92893 6.25 10C6.25 12.0711 7.92893 13.75 10 13.75C12.0711 13.75 13.75 12.0711 13.75 10C13.7522 9.00476 13.3578 8.04964 12.6541 7.3459C11.9504 6.64215 10.9952 6.24778 10 6.25ZM7.70874 9.99964C7.70874 11.2653 8.73475 12.2913 10.0004 12.2913C11.2661 12.2913 12.2921 11.2653 12.2921 9.99964C12.2921 8.73399 11.2661 7.70798 10.0004 7.70798C8.73475 7.70798 7.70874 8.73399 7.70874 9.99964Z" fill="#121212"/>
</g>
</svg>
