<svg width="115" height="31" viewBox="0 0 115 31" fill="none" xmlns="http://www.w3.org/2000/svg">
<path d="M20.1534 17.1378C20.1534 15.9375 20.3767 14.8837 20.8233 13.9765C21.2839 13.0692 21.905 12.3713 22.6866 11.8828C23.4683 11.3943 24.3406 11.1501 25.3037 11.1501C26.1272 11.1501 26.846 11.3175 27.4601 11.6525C28.0882 11.9875 28.5697 12.4272 28.9047 12.9715V11.3176H32.4848V23H28.9047V21.346C28.5558 21.8904 28.0673 22.33 27.4392 22.665C26.8251 23 26.1062 23.1675 25.2827 23.1675C24.3336 23.1675 23.4683 22.9232 22.6866 22.4347C21.905 21.9322 21.2839 21.2274 20.8233 20.3202C20.3767 19.399 20.1534 18.3382 20.1534 17.1378ZM28.9047 17.1588C28.9047 16.2655 28.6535 15.5606 28.151 15.0442C27.6625 14.5278 27.0623 14.2696 26.3505 14.2696C25.6387 14.2696 25.0315 14.5278 24.529 15.0442C24.0405 15.5467 23.7963 16.2446 23.7963 17.1378C23.7963 18.0311 24.0405 18.743 24.529 19.2733C25.0315 19.7898 25.6387 20.048 26.3505 20.048C27.0623 20.048 27.6625 19.7898 28.151 19.2733C28.6535 18.7569 28.9047 18.0521 28.9047 17.1588ZM38.655 7.50715V23H35.0749V7.50715H38.655ZM44.8296 7.50715V23H41.2494V7.50715H44.8296ZM46.7122 17.1378C46.7122 15.9375 46.9355 14.8837 47.3821 13.9765C47.8427 13.0692 48.4639 12.3713 49.2455 11.8828C50.0271 11.3943 50.8994 11.1501 51.8625 11.1501C52.686 11.1501 53.4048 11.3175 54.0189 11.6525C54.647 11.9875 55.1286 12.4272 55.4636 12.9715V11.3176H59.0437V23H55.4636V21.346C55.1146 21.8904 54.6261 22.33 53.998 22.665C53.3839 23 52.6651 23.1675 51.8416 23.1675C50.8925 23.1675 50.0271 22.9232 49.2455 22.4347C48.4639 21.9322 47.8427 21.2274 47.3821 20.3202C46.9355 19.399 46.7122 18.3382 46.7122 17.1378ZM55.4636 17.1588C55.4636 16.2655 55.2123 15.5606 54.7098 15.0442C54.2213 14.5278 53.6212 14.2696 52.9093 14.2696C52.1975 14.2696 51.5903 14.5278 51.0879 15.0442C50.5994 15.5467 50.3551 16.2446 50.3551 17.1378C50.3551 18.0311 50.5994 18.743 51.0879 19.2733C51.5903 19.7898 52.1975 20.048 52.9093 20.048C53.6212 20.048 54.2213 19.7898 54.7098 19.2733C55.2123 18.7569 55.4636 18.0521 55.4636 17.1588ZM65.2138 12.9715C65.5488 12.4272 66.0303 11.9875 66.6584 11.6525C67.2865 11.3175 68.0053 11.1501 68.8149 11.1501C69.7779 11.1501 70.6503 11.3943 71.4319 11.8828C72.2135 12.3713 72.8276 13.0692 73.2743 13.9765C73.7349 14.8837 73.9652 15.9375 73.9652 17.1378C73.9652 18.3382 73.7349 19.399 73.2743 20.3202C72.8276 21.2274 72.2135 21.9322 71.4319 22.4347C70.6503 22.9232 69.7779 23.1675 68.8149 23.1675C67.9914 23.1675 67.2725 23.007 66.6584 22.686C66.0443 22.351 65.5627 21.9113 65.2138 21.367V23H61.6337V7.50715H65.2138V12.9715ZM70.3223 17.1378C70.3223 16.2446 70.071 15.5467 69.5686 15.0442C69.08 14.5278 68.4729 14.2696 67.7471 14.2696C67.0353 14.2696 66.4281 14.5278 65.9256 15.0442C65.4371 15.5606 65.1929 16.2655 65.1929 17.1588C65.1929 18.0521 65.4371 18.7569 65.9256 19.2733C66.4281 19.7898 67.0353 20.048 67.7471 20.048C68.4589 20.048 69.0661 19.7898 69.5686 19.2733C70.071 18.743 70.3223 18.0311 70.3223 17.1378ZM81.1612 23.1675C80.0167 23.1675 78.9838 22.9232 78.0626 22.4347C77.1554 21.9462 76.4366 21.2483 75.9062 20.3411C75.3898 19.4339 75.1316 18.3731 75.1316 17.1588C75.1316 15.9584 75.3968 14.9046 75.9271 13.9974C76.4575 13.0762 77.1833 12.3713 78.1045 11.8828C79.0257 11.3943 80.0586 11.1501 81.2031 11.1501C82.3476 11.1501 83.3805 11.3943 84.3017 11.8828C85.2228 12.3713 85.9486 13.0762 86.479 13.9974C87.0094 14.9046 87.2746 15.9584 87.2746 17.1588C87.2746 18.3591 87.0024 19.4199 86.4581 20.3411C85.9277 21.2483 85.1949 21.9462 84.2598 22.4347C83.3386 22.9232 82.3057 23.1675 81.1612 23.1675ZM81.1612 20.0689C81.8451 20.0689 82.4244 19.8177 82.8989 19.3152C83.3874 18.8127 83.6317 18.0939 83.6317 17.1588C83.6317 16.2236 83.3944 15.5048 82.9199 15.0023C82.4593 14.4999 81.887 14.2486 81.2031 14.2486C80.5052 14.2486 79.926 14.4999 79.4654 15.0023C79.0048 15.4909 78.7745 16.2097 78.7745 17.1588C78.7745 18.0939 78.9978 18.8127 79.4444 19.3152C79.905 19.8177 80.4773 20.0689 81.1612 20.0689ZM94.4917 23.1675C93.3472 23.1675 92.3144 22.9232 91.3932 22.4347C90.4859 21.9462 89.7671 21.2483 89.2367 20.3411C88.7203 19.4339 88.4621 18.3731 88.4621 17.1588C88.4621 15.9584 88.7273 14.9046 89.2577 13.9974C89.7881 13.0762 90.5138 12.3713 91.435 11.8828C92.3562 11.3943 93.3891 11.1501 94.5336 11.1501C95.6781 11.1501 96.711 11.3943 97.6322 11.8828C98.5534 12.3713 99.2792 13.0762 99.8096 13.9974C100.34 14.9046 100.605 15.9584 100.605 17.1588C100.605 18.3591 100.333 19.4199 99.7886 20.3411C99.2582 21.2483 98.5255 21.9462 97.5903 22.4347C96.6691 22.9232 95.6363 23.1675 94.4917 23.1675ZM94.4917 20.0689C95.1757 20.0689 95.7549 19.8177 96.2294 19.3152C96.718 18.8127 96.9622 18.0939 96.9622 17.1588C96.9622 16.2236 96.7249 15.5048 96.2504 15.0023C95.7898 14.4999 95.2175 14.2486 94.5336 14.2486C93.8357 14.2486 93.2565 14.4999 92.7959 15.0023C92.3353 15.4909 92.105 16.2097 92.105 17.1588C92.105 18.0939 92.3283 18.8127 92.775 19.3152C93.2356 19.8177 93.8078 20.0689 94.4917 20.0689ZM109.644 23L106.085 18.1009V23H102.504V7.50715H106.085V16.0701L109.623 11.3176H114.04L109.183 17.1797L114.082 23H109.644Z" fill="white"/>
<path d="M17.3757 9.62695C15.857 9.62695 14.4679 10.4852 13.7888 11.8435L11.9185 15.5855L5.95996 27.5025H9.43989C10.9586 27.5025 12.3476 26.6442 13.0268 25.286L20.8556 9.62695H17.3757Z" fill="white"/>
<path d="M0 3.66699L5.95853 15.584H11.9171L7.06681 5.88356C6.38767 4.52528 4.99864 3.66699 3.47993 3.66699H0Z" fill="#FE6E75"/>
</svg>
